# xmcd
#
# Track frame offsets:
#	150
#	11734
#	27954
#	43592
#	58824
#	69460
#	87520
#	102594
#	115933
#	137161
#	154219
#
# Disc length: 2340 seconds
# Revision: 0
# Processed by: cddbd v1.5.2PL0 Copyright (c) Steve Scherf et al.
# Submitted via: dBpowerAMP V12.0
#
DISCID=9a09220b
DTITLE=Bap Kennedy - Let's Start Again
DYEAR=2013
DGENRE=Americana
TTITLE0=Let's Start Again
TTITLE1=Revelation Blues
TTITLE2=If Things Don't Change
TTITLE3=King of Mexico
TTITLE4=Song of her Desire
TTITLE5=Radio Waves
TTITLE6=Heart Trouble
TTITLE7=Under my Wing
TTITLE8=Strange Kid
TTITLE9=Fool's Paradise
TTITLE10=Let it go
EXTD=
EXTT0=
EXTT1=
EXTT2=
EXTT3=
EXTT4=
EXTT5=
EXTT6=
EXTT7=
EXTT8=
EXTT9=
EXTT10=
PLAYORDER=
